<svg width="176" height="114" viewBox="0 0 176 114" fill="none" xmlns="http://www.w3.org/2000/svg">
<path d="M176 0L129.764 56L176 114H148.408H120.815H1L47.733 58L1 0H27.8466H57.6761H176Z" fill="#F6D002"/>
<path d="M28 0H0.5L47.5 58L0 114H121L90 78L75 96H43L75 58L28 0Z" fill="#A59983"/>
<path d="M57.5 0H28.5L75 58L43 96H75L90 77.5L121 114H148.5L103 58L135.5 18.5H103L87 36L57.5 0Z" fill="#F6D002"/>
<path d="M176 0H58L87 35.5L103 18H136L103 58L148.5 113.5H175.5L129.5 56L176 0Z" fill="#D0542E"/>
</svg>
